<svg xmlns="http://www.w3.org/2000/svg" viewBox="0 0 164.84 41.87"><defs><style>.cls-1{fill:#fbe116;}.cls-1,.cls-2,.cls-3{fill-rule:evenodd;}.cls-2{fill:#fff;}.cls-3,.cls-4{fill:#dd2b1c;}</style></defs><g id="Слой_2" data-name="Слой 2"><g id="Слой_1-2" data-name="Слой 1"><polygon class="cls-1" points="47.2 25.57 47.5 2.45 53.14 2.84 57.11 17.46 57.46 2.33 61.83 2.85 60.67 25.77 55.7 26.5 51.41 10.14 51.71 26.39 47.2 25.57"/><path class="cls-1" d="M68.06,11.72l4,.84-.3-4.42L68.26,7.3ZM64,23.89,65.35,4.51l10,.72L76.45,24l-3.67,0-.48-8.52-4.39-.35L67.61,24Z"/><polygon class="cls-2" points="120.34 7.87 132.41 7.62 133.38 12.36 124.19 20.86 133.28 20.36 132.24 25.58 119.84 24.83 120.61 19.09 129.43 11.67 119.35 11.57 120.34 7.87"/><polygon class="cls-2" points="117.29 2.74 117.84 6.37 109.39 6.17 110.29 10.19 113.99 10.27 113.86 13.25 110.16 12.95 110.63 18.54 118.53 17.79 117.99 21.69 107.18 21.79 105.99 3.34 117.29 2.74"/><path class="cls-2" d="M98.58,13.71l-1.08-3-2-.66-.38,4.7ZM101,7.53l1.74,8.52-3,1,6.13,8.55L100,25.47l-3.23-7.71-1.47-.42.37,7.89H91L90.78,7.34Z"/><path class="cls-2" d="M160.52,5.38,161.69,14l-3.08.79,5.54,8.94-5.74-.52-2.71-7.9-1.44-.52-.15,7.9-4.67-.32.94-17.86Zm-2.78,6-.87-3.08-2-.8-.69,4.67ZM147.18,4.11l.55,3.63-8.45-.2.9,4,3.7.08-.13,3-3.7-.3.47,5.59,7.9-.75-.54,3.9-10.81.1L135.88,4.71Z"/><polygon class="cls-2" points="80.77 25.79 79.08 3.64 100.13 0.64 101.77 4.49 82.27 7.36 82.63 11.18 87.27 10.18 87.8 13.77 83.48 13.93 85.46 25.85 80.77 25.79"/><path class="cls-3" d="M21.83,0A20.93,20.93,0,1,1,0,20,20.94,20.94,0,0,1,21.83,0Z"/><path class="cls-2" d="M36.29,18.55a3.09,3.09,0,0,0-2.68,1.78l-.34-1.25-1.44.13,1,11,2-.19-.62-6.78c-.15-1.66.65-2.63,2-2.76a3.37,3.37,0,0,1,1.38.13l-.18-2A3.36,3.36,0,0,0,36.29,18.55Z"/><path class="cls-2" d="M28.46,33.13a1.73,1.73,0,0,1-2.34,1.17C25.05,34,24.6,33.17,25,31.71l.22-.8,5.4,1.47L31.26,30c.69-2.53-.35-4.36-2.64-5s-4,.44-4.72,3L23,31.18c-.69,2.55.31,4.39,2.53,5a3.69,3.69,0,0,0,4.86-2.5Zm-.32-6.26c1.11.31,1.58,1.13,1.19,2.59l-.25.91-3.46-.94.25-.91C26.26,27.06,27.07,26.58,28.14,26.87Z"/><polygon class="cls-2" points="20.62 23.75 29.58 23.9 30.77 23.27 27.69 17.48 26.04 18.35 27.92 21.89 18.97 21.72 17.77 22.36 21.09 28.62 22.74 27.75 20.62 23.75"/><path class="cls-2" d="M19.32,32.15a1.73,1.73,0,0,1-1.18,2.33c-1,.41-1.89,0-2.45-1.4l-.31-.78,5.22-2L19.7,28c-1-2.44-2.89-3.28-5.1-2.41s-3,2.77-2,5.21l1.21,3.06c1,2.46,2.87,3.34,5,2.49a3.69,3.69,0,0,0,2.4-4.91Zm-4-4.83c1.07-.42,1.94,0,2.5,1.36l.34.88-3.34,1.31L14.48,30C13.93,28.59,14.28,27.73,15.32,27.32Z"/><path class="cls-2" d="M14.88,21.8a3.05,3.05,0,0,0-3,1l0-1.3-1.43-.23L8.58,32.21l2,.33,1.11-6.72c.28-1.64,1.29-2.38,2.66-2.16a3.33,3.33,0,0,1,1.3.48l.33-2A3,3,0,0,0,14.88,21.8Z"/><path class="cls-2" d="M9.93,13.18l.65,0-.06-1.85-.65,0c-2.56.1-3.66,1.67-3.58,3.95l0,.61-1.61,0,.07,1.85,1.61-.06.33,9.2,2-.07-.33-9.2,2.14-.08-.07-1.84-2.13.08,0-.61C8.26,13.83,8.78,13.22,9.93,13.18Z"/><path class="cls-1" d="M26.81,5.28a3.44,3.44,0,0,0-4.23,2.81l2,.31a1.55,1.55,0,0,1,1.89-1.19c1.09.17,1.46,1,1.26,2.25l-.12.77L26,10c-2.41-.37-4.14.53-4.48,2.77a3.21,3.21,0,0,0,2.83,3.9A2.74,2.74,0,0,0,27,15.73l0,1,1.64.25,1.12-7.25C30.14,7.26,29.16,5.65,26.81,5.28Zm.31,8.18a1.67,1.67,0,0,1-2.05,1.47,1.55,1.55,0,0,1-1.49-1.87c.16-1.08,1-1.53,2.18-1.34l1.59.25Z"/><path class="cls-1" d="M18,6l.44,5.71c.11,1.29.4,3.48.68,4.91l-.06.05c-.42-.85-1.07-2.17-1.59-3.12l-3.95-7.2-2.11.16,1.14,14.64,2.1-.16-.44-5.65c-.11-1.38-.39-3.57-.65-5l.06-.05c.43.92,1.15,2.4,1.68,3.45l3.82,6.92,2.11-.17L20.05,5.84Z"/><path class="cls-2" d="M33.32,12a2.81,2.81,0,1,1-2.8,2.8A2.8,2.8,0,0,1,33.32,12Zm0-.45a3.26,3.26,0,1,1-3.25,3.25A3.26,3.26,0,0,1,33.32,11.52Z"/><path class="cls-2" d="M32.47,14.39H33a2.71,2.71,0,0,0,.64,0,.38.38,0,0,0,.2-.15.45.45,0,0,0,.07-.27.43.43,0,0,0-.09-.28.39.39,0,0,0-.27-.14H32.47Zm-.71,2V12.9h1.49a2.6,2.6,0,0,1,.82.1.75.75,0,0,1,.41.34,1,1,0,0,1,.16.55.92.92,0,0,1-.24.65,1.07,1.07,0,0,1-.69.33,2,2,0,0,1,.38.29,4.11,4.11,0,0,1,.4.58l.43.68h-.85l-.51-.77a6,6,0,0,0-.37-.51A.62.62,0,0,0,33,15a1.36,1.36,0,0,0-.36,0h-.14v1.47Z"/><rect class="cls-4" x="45.99" y="30.58" width="118.85" height="10.37"/><path class="cls-2" d="M158.49,35.62l1.34-3.38h.89l-2.06,4.86a2.87,2.87,0,0,1-.2.39,1.46,1.46,0,0,1-.26.34,1.17,1.17,0,0,1-.39.24,1.57,1.57,0,0,1-.57.08h-.4l0-.61h.36a.58.58,0,0,0,.28-.06.56.56,0,0,0,.2-.14,1.33,1.33,0,0,0,.14-.19c0-.08.07-.15.1-.23l.16-.35-2-4.32H157Zm-3.4,2.45h-.77V32.88h-2.87v5.19h-.77V32.24h4.41Zm-5.84-5.83v5.83h-.77V35.66l-.34.08-.36.07a2.34,2.34,0,0,1-.39,0l-.46,0a3,3,0,0,1-.83-.1,1.51,1.51,0,0,1-.62-.31,1.35,1.35,0,0,1-.39-.56,2.32,2.32,0,0,1-.13-.84V32.24h.77v1.82a1.85,1.85,0,0,0,.07.57A.83.83,0,0,0,146,35a.91.91,0,0,0,.38.19,2,2,0,0,0,.52.06,5.32,5.32,0,0,0,.81-.06,6.08,6.08,0,0,0,.74-.16V32.24ZM139,35.07a.78.78,0,0,0,0,.26.83.83,0,0,0,.15.23.77.77,0,0,0,.25.16,1,1,0,0,0,.37.06H141V34.34h-1.06a1.22,1.22,0,0,0-.41.06,1,1,0,0,0-.28.17.69.69,0,0,0-.16.23A.86.86,0,0,0,139,35.07Zm2.71-1.33v4.33H141V36.39h-1.11l-1,1.68H138l1.09-1.8a1.27,1.27,0,0,1-.65-.47,1.32,1.32,0,0,1-.22-.74,1.36,1.36,0,0,1,.11-.53,1.17,1.17,0,0,1,.32-.41,1.62,1.62,0,0,1,.52-.28,2.15,2.15,0,0,1,.7-.1ZM134.26,36a2.51,2.51,0,0,0,.08.62,1.35,1.35,0,0,0,.23.5,1.16,1.16,0,0,0,.38.35,1.13,1.13,0,0,0,.54.13,1.2,1.2,0,0,0,.54-.13,1.16,1.16,0,0,0,.38-.35,1.53,1.53,0,0,0,.23-.5,2.51,2.51,0,0,0,.08-.62v-.08a2.51,2.51,0,0,0-.08-.62,1.53,1.53,0,0,0-.23-.5,1,1,0,0,0-.39-.35,1,1,0,0,0-.54-.13,1,1,0,0,0-.53.13,1.06,1.06,0,0,0-.38.35,1.35,1.35,0,0,0-.23.5,2.51,2.51,0,0,0-.08.62Zm-.74-.08a2.5,2.5,0,0,1,.14-.88,2.08,2.08,0,0,1,.39-.7,1.73,1.73,0,0,1,.61-.46,2.09,2.09,0,0,1,1.65,0,1.76,1.76,0,0,1,.62.46,2.08,2.08,0,0,1,.39.7,2.75,2.75,0,0,1,.14.88V36a2.75,2.75,0,0,1-.14.88,1.94,1.94,0,0,1-.39.69,1.76,1.76,0,0,1-.62.46,1.83,1.83,0,0,1-.82.17,1.8,1.8,0,0,1-.82-.17,1.76,1.76,0,0,1-.62-.46,1.94,1.94,0,0,1-.39-.69,2.5,2.5,0,0,1-.14-.88Zm-1.49,0a2.37,2.37,0,0,0-.07-.61,1.33,1.33,0,0,0-.21-.5,1,1,0,0,0-.89-.47,1.22,1.22,0,0,0-.34,0,1,1,0,0,0-.28.13,1,1,0,0,0-.22.19,2,2,0,0,0-.17.23V37a1.46,1.46,0,0,0,.17.24,1,1,0,0,0,.22.19,1.39,1.39,0,0,0,.28.12,1.29,1.29,0,0,0,.35,0,1.08,1.08,0,0,0,.52-.13,1.09,1.09,0,0,0,.36-.35,1.33,1.33,0,0,0,.21-.5A2.51,2.51,0,0,0,132,36Zm.74.08a3.08,3.08,0,0,1-.11.88,2,2,0,0,1-.33.7,1.43,1.43,0,0,1-.52.46,1.51,1.51,0,0,1-.71.16,1.78,1.78,0,0,1-.72-.13,1.5,1.5,0,0,1-.53-.37v2.09h-.74v-6h.68l0,.48a1.46,1.46,0,0,1,.53-.42,1.81,1.81,0,0,1,.72-.14,1.54,1.54,0,0,1,.73.16,1.63,1.63,0,0,1,.53.45,2.05,2.05,0,0,1,.32.7,3.17,3.17,0,0,1,.11.9Zm-6.73.28h-.54v1.84h-.75V33.74h.75v1.83H126l1.46-1.83h.89l-1.71,2.08,1.86,2.25h-.94Zm-3.9,1.32a1,1,0,0,0,.37-.07,1.09,1.09,0,0,0,.32-.17.93.93,0,0,0,.22-.27.92.92,0,0,0,.11-.33h.7a1.58,1.58,0,0,1-.16.55,1.83,1.83,0,0,1-.38.46,1.78,1.78,0,0,1-.54.31,1.73,1.73,0,0,1-.64.12,2.09,2.09,0,0,1-.86-.17,1.87,1.87,0,0,1-.6-.47,2.06,2.06,0,0,1-.36-.69,2.82,2.82,0,0,1-.11-.83v-.17a2.82,2.82,0,0,1,.11-.83,2.06,2.06,0,0,1,.36-.69,1.87,1.87,0,0,1,.6-.47,2,2,0,0,1,.85-.17,1.92,1.92,0,0,1,.69.12,1.63,1.63,0,0,1,.54.33,1.61,1.61,0,0,1,.35.5,1.82,1.82,0,0,1,.15.62h-.7a1.51,1.51,0,0,0-.1-.38,1,1,0,0,0-.21-.3,1,1,0,0,0-.31-.21,1.1,1.1,0,0,0-.41-.07,1.09,1.09,0,0,0-.57.13,1.13,1.13,0,0,0-.36.36,1.46,1.46,0,0,0-.2.5,2.65,2.65,0,0,0,0,.56V36a2.75,2.75,0,0,0,0,.57,1.52,1.52,0,0,0,.19.49,1,1,0,0,0,.37.36A1.11,1.11,0,0,0,122.14,37.55Zm-4.76,0a1.16,1.16,0,0,0,.38-.06,1.57,1.57,0,0,0,.32-.15,1,1,0,0,0,.25-.2,1.18,1.18,0,0,0,.17-.24V36h-.62a1.91,1.91,0,0,0-1,.2.64.64,0,0,0-.34.6.71.71,0,0,0,0,.29.51.51,0,0,0,.15.23.81.81,0,0,0,.27.16A1,1,0,0,0,117.38,37.51Zm1.23.56a.8.8,0,0,1-.06-.2,2,2,0,0,1,0-.26,1.51,1.51,0,0,1-.23.21A1.69,1.69,0,0,1,118,38a1.61,1.61,0,0,1-.33.12,1.64,1.64,0,0,1-.38,0,1.66,1.66,0,0,1-.61-.1,1.6,1.6,0,0,1-.46-.27,1.33,1.33,0,0,1-.29-.41,1.18,1.18,0,0,1-.11-.5,1.38,1.38,0,0,1,.14-.62,1.26,1.26,0,0,1,.39-.44,1.85,1.85,0,0,1,.62-.27,3.24,3.24,0,0,1,.8-.1h.74V35.1a.81.81,0,0,0-.24-.61.89.89,0,0,0-.68-.23,1.46,1.46,0,0,0-.38.05,1,1,0,0,0-.29.15.64.64,0,0,0-.19.22.48.48,0,0,0-.07.26h-.75a1,1,0,0,1,.12-.46,1.5,1.5,0,0,1,.35-.41,2,2,0,0,1,.54-.3,2.3,2.3,0,0,1,.71-.11,2.34,2.34,0,0,1,.66.09,1.42,1.42,0,0,1,.5.27,1.2,1.2,0,0,1,.34.46,1.54,1.54,0,0,1,.12.63v2a3.8,3.8,0,0,0,0,.46,2.1,2.1,0,0,0,.12.42v.06Zm-4.35-2.2a2.92,2.92,0,0,0-.07-.61,1.75,1.75,0,0,0-.21-.5,1.12,1.12,0,0,0-.37-.35,1.05,1.05,0,0,0-.52-.12,1.18,1.18,0,0,0-.34,0,.8.8,0,0,0-.28.13.79.79,0,0,0-.22.19,1.24,1.24,0,0,0-.17.23V37a1,1,0,0,0,.17.24.79.79,0,0,0,.22.19,1,1,0,0,0,.28.12,1.23,1.23,0,0,0,.35,0,1.08,1.08,0,0,0,.52-.13,1.2,1.2,0,0,0,.36-.35,1.75,1.75,0,0,0,.21-.5,3.1,3.1,0,0,0,.07-.62ZM115,36a3.48,3.48,0,0,1-.11.88,2.39,2.39,0,0,1-.33.7,1.46,1.46,0,0,1-1.24.62,1.73,1.73,0,0,1-.71-.13,1.41,1.41,0,0,1-.53-.37v2.09h-.74v-6H112l0,.48a1.64,1.64,0,0,1,.53-.42,1.83,1.83,0,0,1,.73-.14,1.49,1.49,0,0,1,1.25.61,1.89,1.89,0,0,1,.33.7,3.58,3.58,0,0,1,.11.9Zm-8.24,1.6a.94.94,0,0,0,.37-.07,1.09,1.09,0,0,0,.32-.17,1.18,1.18,0,0,0,.23-.27.91.91,0,0,0,.1-.33h.7a1.39,1.39,0,0,1-.16.55,1.78,1.78,0,0,1-.37.46,2.05,2.05,0,0,1-.54.31,1.78,1.78,0,0,1-.65.12,2,2,0,0,1-.85-.17,1.91,1.91,0,0,1-.61-.47,2.24,2.24,0,0,1-.35-.69,2.82,2.82,0,0,1-.12-.83v-.17A2.82,2.82,0,0,1,105,35a2.24,2.24,0,0,1,.35-.69,2,2,0,0,1,.6-.47,2,2,0,0,1,.85-.17,1.85,1.85,0,0,1,.69.12,1.63,1.63,0,0,1,.54.33,1.46,1.46,0,0,1,.35.5,1.61,1.61,0,0,1,.15.62h-.7a1,1,0,0,0-.1-.38,1,1,0,0,0-.21-.3.85.85,0,0,0-.31-.21,1.07,1.07,0,0,0-.41-.07,1.09,1.09,0,0,0-.57.13,1.13,1.13,0,0,0-.36.36,1.44,1.44,0,0,0-.19.5,2.67,2.67,0,0,0-.06.56V36a2.76,2.76,0,0,0,.06.57,1.32,1.32,0,0,0,.19.49,1,1,0,0,0,.36.36A1.13,1.13,0,0,0,106.76,37.55Zm-3.67-3.81h.74v4.33h-.74V34.91l-2,3.16h-.74V33.74h.74V36.9Zm-6.68,1.84h1c.7,0,1-.21,1-.61s-.35-.63-1-.63h-1Zm0,.59v1.3h1.23a1.1,1.1,0,0,0,.69-.17.62.62,0,0,0,0-1,1.17,1.17,0,0,0-.69-.17Zm-.74,1.9V33.74h1.69a3.42,3.42,0,0,1,.75.07,1.68,1.68,0,0,1,.56.22,1,1,0,0,1,.36.37,1.12,1.12,0,0,1,.12.53.88.88,0,0,1-.18.54,1.1,1.1,0,0,1-.53.37,1.11,1.11,0,0,1,.37.15.87.87,0,0,1,.27.23.72.72,0,0,1,.17.29,1,1,0,0,1,.06.33,1.13,1.13,0,0,1-.12.54,1,1,0,0,1-.33.38,1.55,1.55,0,0,1-.52.23,3,3,0,0,1-.7.08Zm-1.74-2.2a2.92,2.92,0,0,0-.07-.61,1.75,1.75,0,0,0-.21-.5,1.12,1.12,0,0,0-.37-.35,1.08,1.08,0,0,0-.52-.12,1.18,1.18,0,0,0-.34,0,.8.8,0,0,0-.28.13.67.67,0,0,0-.22.19,1.24,1.24,0,0,0-.17.23V37a1,1,0,0,0,.17.24.67.67,0,0,0,.22.19,1,1,0,0,0,.28.12,1.21,1.21,0,0,0,.34,0,1,1,0,0,0,.52-.13,1.12,1.12,0,0,0,.37-.35,1.75,1.75,0,0,0,.21-.5,3.1,3.1,0,0,0,.07-.62Zm.74.08a3.07,3.07,0,0,1-.12.88,2.14,2.14,0,0,1-.32.7,1.46,1.46,0,0,1-.53.46,1.49,1.49,0,0,1-.71.16,1.81,1.81,0,0,1-.72-.13,1.46,1.46,0,0,1-.52-.37v2.09H91v-6h.67l0,.48a1.54,1.54,0,0,1,.53-.42,1.83,1.83,0,0,1,.73-.14,1.49,1.49,0,0,1,1.25.61,2.27,2.27,0,0,1,.33.7,3.58,3.58,0,0,1,.11.9Zm-6.3-1.68a1.07,1.07,0,0,0-.41.08,1,1,0,0,0-.34.24,1.08,1.08,0,0,0-.24.39,2,2,0,0,0-.14.53h2.17v-.06a2.26,2.26,0,0,0-.07-.43,1.33,1.33,0,0,0-.18-.38.89.89,0,0,0-.79-.37Zm.09,3.88a2,2,0,0,1-.82-.16,1.69,1.69,0,0,1-.62-.43,1.86,1.86,0,0,1-.4-.66,2.32,2.32,0,0,1-.14-.84v-.17a2.73,2.73,0,0,1,.15-.94,2.17,2.17,0,0,1,.43-.71,2,2,0,0,1,.6-.43,1.91,1.91,0,0,1,1.51,0,1.64,1.64,0,0,1,.56.45,2,2,0,0,1,.32.67,3.25,3.25,0,0,1,.1.85v.33H87.22a1.74,1.74,0,0,0,.1.56,1.41,1.41,0,0,0,.25.45,1.08,1.08,0,0,0,.4.3,1.15,1.15,0,0,0,.53.12,1.41,1.41,0,0,0,.67-.16,1.6,1.6,0,0,0,.47-.43l.46.35a1.86,1.86,0,0,1-.26.31,1.5,1.5,0,0,1-.34.27,2.11,2.11,0,0,1-.46.19A2,2,0,0,1,88.46,38.15Zm-4.35-.6a1,1,0,0,0,.38-.07,1.23,1.23,0,0,0,.32-.17A1.13,1.13,0,0,0,85,37a.75.75,0,0,0,.1-.33h.7a1.37,1.37,0,0,1-.15.55,1.83,1.83,0,0,1-.38.46,1.91,1.91,0,0,1-.54.31,1.75,1.75,0,0,1-.65.12,2,2,0,0,1-.85-.17,1.87,1.87,0,0,1-.6-.47,2.06,2.06,0,0,1-.36-.69,2.82,2.82,0,0,1-.12-.83v-.17A2.82,2.82,0,0,1,82.3,35a2.06,2.06,0,0,1,.36-.69,1.87,1.87,0,0,1,.6-.47,2,2,0,0,1,.85-.17,1.92,1.92,0,0,1,.69.12,1.69,1.69,0,0,1,.53.33,1.64,1.64,0,0,1,.36.5,1.81,1.81,0,0,1,.14.62h-.7a1.18,1.18,0,0,0-.09-.38,1,1,0,0,0-.21-.3,1,1,0,0,0-.32-.21,1,1,0,0,0-.4-.07,1.09,1.09,0,0,0-.57.13,1.27,1.27,0,0,0-.37.36,1.67,1.67,0,0,0-.19.5,2.67,2.67,0,0,0-.06.56V36a2.76,2.76,0,0,0,.06.57,1.52,1.52,0,0,0,.19.49,1,1,0,0,0,.37.36A1.09,1.09,0,0,0,84.11,37.55ZM81.65,35.9h-2v-.61h2Zm-2.72,2.17h-.75V36.22h-2v1.85h-.75V33.74h.75v1.88h2V33.74h.75Zm-5.27-5.91a1.18,1.18,0,0,1-.08.43,1,1,0,0,1-.24.34,1,1,0,0,1-.38.22,1.6,1.6,0,0,1-1,0,1,1,0,0,1-.38-.22,1,1,0,0,1-.24-.34,1.18,1.18,0,0,1-.08-.43h.6a.59.59,0,0,0,0,.23.5.5,0,0,0,.1.19.59.59,0,0,0,.18.13.78.78,0,0,0,.28,0,.68.68,0,0,0,.27,0,.53.53,0,0,0,.19-.13.5.5,0,0,0,.1-.19.59.59,0,0,0,0-.23Zm-.2,1.58h.74v4.33h-.74V34.91l-2,3.16h-.74V33.74h.74V36.9Zm-5.82,3.77a1.21,1.21,0,0,0,.38-.06,1.57,1.57,0,0,0,.32-.15,1.22,1.22,0,0,0,.25-.2,1.11,1.11,0,0,0,.16-.24V36h-.61a1.89,1.89,0,0,0-1,.2.65.65,0,0,0-.35.6.72.72,0,0,0,.06.29.51.51,0,0,0,.15.23.76.76,0,0,0,.26.16A1,1,0,0,0,67.64,37.51Zm1.23.56a.52.52,0,0,1-.06-.2,2,2,0,0,1,0-.26,1.21,1.21,0,0,1-.24.21,1.61,1.61,0,0,1-.28.17,2,2,0,0,1-.34.12,1.53,1.53,0,0,1-.38,0,1.64,1.64,0,0,1-.6-.1,1.6,1.6,0,0,1-.46-.27,1.28,1.28,0,0,1-.4-.91,1.38,1.38,0,0,1,.14-.62,1.26,1.26,0,0,1,.39-.44,1.8,1.8,0,0,1,.61-.27,3.32,3.32,0,0,1,.81-.1h.73V35.1a.8.8,0,0,0-.23-.61.89.89,0,0,0-.68-.23,1.46,1.46,0,0,0-.38.05,1.05,1.05,0,0,0-.3.15,1,1,0,0,0-.19.22.58.58,0,0,0-.06.26h-.75a1,1,0,0,1,.12-.46,1.34,1.34,0,0,1,.35-.41,2,2,0,0,1,.54-.3,2.25,2.25,0,0,1,.71-.11,2.22,2.22,0,0,1,.65.09A1.38,1.38,0,0,1,69,34a1.18,1.18,0,0,1,.33.46,1.54,1.54,0,0,1,.12.63v2a3.91,3.91,0,0,0,0,.46,2.1,2.1,0,0,0,.12.42v.06ZM65,33.74v4.33h-.75V34.35H62.79l0,1.24a10,10,0,0,1-.1,1.08,2.56,2.56,0,0,1-.25.78,1.07,1.07,0,0,1-.43.46,1.31,1.31,0,0,1-.69.16h-.21v-.66h.16a.57.57,0,0,0,.36-.11.67.67,0,0,0,.22-.32,2.21,2.21,0,0,0,.13-.56c0-.23.05-.5.06-.83l.08-1.85Zm-4.74,4.33h-.74V36.22h-2v1.85H56.8V33.74h.74v1.88h2V33.74h.74ZM52.61,36a2.51,2.51,0,0,0,.07.62,1.53,1.53,0,0,0,.23.5,1.1,1.1,0,0,0,.39.35,1.12,1.12,0,0,0,.53.13,1.07,1.07,0,0,0,.92-.48,1.53,1.53,0,0,0,.23-.5,2.51,2.51,0,0,0,.08-.62v-.08a2.51,2.51,0,0,0-.08-.62,1.53,1.53,0,0,0-.23-.5,1.06,1.06,0,0,0-.38-.35,1.09,1.09,0,0,0-.55-.13,1,1,0,0,0-.53.13,1.06,1.06,0,0,0-.38.35,1.53,1.53,0,0,0-.23.5,2.51,2.51,0,0,0-.07.62Zm-.75-.08A2.75,2.75,0,0,1,52,35a2.08,2.08,0,0,1,.39-.7,1.76,1.76,0,0,1,.62-.46,1.92,1.92,0,0,1,.81-.17,2,2,0,0,1,.83.17,1.68,1.68,0,0,1,.62.46,2.1,2.1,0,0,1,.4.7,2.75,2.75,0,0,1,.13.88V36a2.75,2.75,0,0,1-.13.88,2,2,0,0,1-.4.69,1.68,1.68,0,0,1-.62.46,1.8,1.8,0,0,1-.82.17A1.85,1.85,0,0,1,53,38a1.76,1.76,0,0,1-.62-.46,1.94,1.94,0,0,1-.39-.69,2.75,2.75,0,0,1-.14-.88Z"/></g></g></svg>